<svg xmlns:xlink="http://www.w3.org/1999/xlink" width="25.92ex" height="3.843ex" style="vertical-align: -1.338ex;" viewBox="0 -1078.4 11159.9 1654.5" role="img" focusable="false" xmlns="http://www.w3.org/2000/svg" aria-labelledby="MathJax-SVG-1-Title">
<title id="MathJax-SVG-1-Title">Equation</title>
<defs aria-hidden="true">
<path stroke-width="1" id="E1-MJMATHI-44" d="M287 628Q287 635 230 637Q207 637 200 638T193 647Q193 655 197 667T204 682Q206 683 403 683Q570 682 590 682T630 676Q702 659 752 597T803 431Q803 275 696 151T444 3L430 1L236 0H125H72Q48 0 41 2T33 11Q33 13 36 25Q40 41 44 43T67 46Q94 46 127 49Q141 52 146 61Q149 65 218 339T287 628ZM703 469Q703 507 692 537T666 584T629 613T590 629T555 636Q553 636 541 636T512 636T479 637H436Q392 637 386 627Q384 623 313 339T242 52Q242 48 253 48T330 47Q335 47 349 47T373 46Q499 46 581 128Q617 164 640 212T683 339T703 469Z"></path>
<path stroke-width="1" id="E1-MJMAIN-3D" d="M56 347Q56 360 70 367H707Q722 359 722 347Q722 336 708 328L390 327H72Q56 332 56 347ZM56 153Q56 168 72 173H708Q722 163 722 153Q722 140 707 133H70Q56 140 56 153Z"></path>
<path stroke-width="1" id="E1-MJSZ2-2211" d="M60 948Q63 950 665 950H1267L1325 815Q1384 677 1388 669H1348L1341 683Q1320 724 1285 761Q1235 809 1174 838T1033 881T882 898T699 902H574H543H251L259 891Q722 258 724 252Q725 250 724 246Q721 243 460 -56L196 -356Q196 -357 407 -357Q459 -357 548 -357T676 -358Q812 -358 896 -353T1063 -332T1204 -283T1307 -196Q1328 -170 1348 -124H1388Q1388 -125 1381 -145T1356 -210T1325 -294L1267 -449L666 -450Q64 -450 61 -448Q55 -446 55 -439Q55 -437 57 -433L590 177Q590 178 557 222T452 366T322 544L56 909L55 924Q55 945 60 948Z"></path>
<path stroke-width="1" id="E1-MJMAIN-28" d="M94 250Q94 319 104 381T127 488T164 576T202 643T244 695T277 729T302 750H315H319Q333 750 333 741Q333 738 316 720T275 667T226 581T184 443T167 250T184 58T225 -81T274 -167T316 -220T333 -241Q333 -250 318 -250H315H302L274 -226Q180 -141 137 -14T94 250Z"></path>
<path stroke-width="1" id="E1-MJMAIN-2212" d="M84 237T84 250T98 270H679Q694 262 694 250T679 230H98Q84 237 84 250Z"></path>
<path stroke-width="1" id="E1-MJMAIN-31" d="M213 578L200 573Q186 568 160 563T102 556H83V602H102Q149 604 189 617T245 641T273 663Q275 666 285 666Q294 666 302 660V361L303 61Q310 54 315 52T339 48T401 46H427V0H416Q395 3 257 3Q121 3 100 0H88V46H114Q136 46 152 46T177 47T193 50T201 52T207 57T213 61V578Z"></path>
<path stroke-width="1" id="E1-MJMAIN-29" d="M60 749L64 750Q69 750 74 750H86L114 726Q208 641 251 514T294 250Q294 182 284 119T261 12T224 -76T186 -143T145 -194T113 -227T90 -246Q87 -249 86 -250H74Q66 -250 63 -250T58 -247T55 -238Q56 -237 66 -225Q221 -64 221 250T66 725Q56 737 55 738Q55 746 60 749Z"></path>
<path stroke-width="1" id="E1-MJMATHI-3C4" d="M39 284Q18 284 18 294Q18 301 45 338T99 398Q134 425 164 429Q170 431 332 431Q492 431 497 429Q517 424 517 402Q517 388 508 376T485 360Q479 358 389 358T299 356Q298 355 283 274T251 109T233 20Q228 5 215 -4T186 -13Q153 -13 153 20V30L203 192Q214 228 227 272T248 336L254 357Q254 358 208 358Q206 358 197 358T183 359Q105 359 61 295Q56 287 53 286T39 284Z"></path>
<path stroke-width="1" id="E1-MJMATHI-61" d="M33 157Q33 258 109 349T280 441Q331 441 370 392Q386 422 416 422Q429 422 439 414T449 394Q449 381 412 234T374 68Q374 43 381 35T402 26Q411 27 422 35Q443 55 463 131Q469 151 473 152Q475 153 483 153H487Q506 153 506 144Q506 138 501 117T481 63T449 13Q436 0 417 -8Q409 -10 393 -10Q359 -10 336 5T306 36L300 51Q299 52 296 50Q294 48 292 46Q233 -10 172 -10Q117 -10 75 30T33 157ZM351 328Q351 334 346 350T323 385T277 405Q242 405 210 374T160 293Q131 214 119 129Q119 126 119 118T118 106Q118 61 136 44T179 26Q217 26 254 59T298 110Q300 114 325 217T351 328Z"></path>
<path stroke-width="1" id="E1-MJMATHI-70" d="M23 287Q24 290 25 295T30 317T40 348T55 381T75 411T101 433T134 442Q209 442 230 378L240 387Q302 442 358 442Q423 442 460 395T497 281Q497 173 421 82T249 -10Q227 -10 210 -4Q199 1 187 11T168 28L161 36Q160 35 139 -51T118 -138Q118 -144 126 -145T163 -148H188Q194 -155 194 -157T191 -175Q188 -187 185 -190T172 -194Q170 -194 161 -194T127 -193T65 -192Q-5 -192 -24 -194H-32Q-39 -187 -39 -183Q-37 -156 -26 -148H-6Q28 -147 33 -136Q36 -130 94 103T155 350Q156 355 156 364Q156 405 131 405Q109 405 94 377T71 316T59 280Q57 278 43 278H29Q23 284 23 287ZM178 102Q200 26 252 26Q282 26 310 49T356 107Q374 141 392 215T411 325V331Q411 405 350 405Q339 405 328 402T306 393T286 380T269 365T254 350T243 336T235 326L232 322Q232 321 229 308T218 264T204 212Q178 106 178 102Z"></path>
<path stroke-width="1" id="E1-MJMAIN-2026" d="M78 60Q78 84 95 102T138 120Q162 120 180 104T199 61Q199 36 182 18T139 0T96 17T78 60ZM525 60Q525 84 542 102T585 120Q609 120 627 104T646 61Q646 36 629 18T586 0T543 17T525 60ZM972 60Q972 84 989 102T1032 120Q1056 120 1074 104T1093 61Q1093 36 1076 18T1033 0T990 17T972 60Z"></path>
<path stroke-width="1" id="E1-MJMATHI-6E" d="M21 287Q22 293 24 303T36 341T56 388T89 425T135 442Q171 442 195 424T225 390T231 369Q231 367 232 367L243 378Q304 442 382 442Q436 442 469 415T503 336T465 179T427 52Q427 26 444 26Q450 26 453 27Q482 32 505 65T540 145Q542 153 560 153Q580 153 580 145Q580 144 576 130Q568 101 554 73T508 17T439 -10Q392 -10 371 17T350 73Q350 92 386 193T423 345Q423 404 379 404H374Q288 404 229 303L222 291L189 157Q156 26 151 16Q138 -11 108 -11Q95 -11 87 -5T76 7T74 17Q74 30 112 180T152 343Q153 348 153 366Q153 405 129 405Q91 405 66 305Q60 285 60 284Q58 278 41 278H27Q21 284 21 287Z"></path>
</defs>
<g stroke="currentColor" fill="currentColor" stroke-width="0" transform="matrix(1 0 0 -1 0 0)" aria-hidden="true">
 <use xlink:href="#E1-MJMATHI-44" x="0" y="0"></use>
 <use xlink:href="#E1-MJMAIN-3D" x="1106" y="0"></use>
 <use xlink:href="#E1-MJSZ2-2211" x="2162" y="0"></use>
 <use xlink:href="#E1-MJMAIN-28" x="3607" y="0"></use>
 <use xlink:href="#E1-MJMAIN-2212" x="3996" y="0"></use>
 <use xlink:href="#E1-MJMAIN-31" x="4775" y="0"></use>
<g transform="translate(5275,0)">
 <use xlink:href="#E1-MJMAIN-29" x="0" y="0"></use>
 <use transform="scale(0.707)" xlink:href="#E1-MJMATHI-3C4" x="550" y="583"></use>
</g>
<g transform="translate(6130,0)">
 <use xlink:href="#E1-MJMATHI-61" x="0" y="0"></use>
<g transform="translate(529,-150)">
 <use transform="scale(0.707)" xlink:href="#E1-MJMAIN-31" x="0" y="0"></use>
<g transform="translate(353,0)">
 <use transform="scale(0.707)" xlink:href="#E1-MJMATHI-70" x="0" y="0"></use>
 <use transform="scale(0.574)" xlink:href="#E1-MJMAIN-31" x="620" y="-291"></use>
</g>
</g>
</g>
 <use xlink:href="#E1-MJMAIN-2026" x="7995" y="0"></use>
<g transform="translate(9334,0)">
 <use xlink:href="#E1-MJMATHI-61" x="0" y="0"></use>
<g transform="translate(529,-150)">
 <use transform="scale(0.707)" xlink:href="#E1-MJMATHI-6E" x="0" y="0"></use>
<g transform="translate(424,0)">
 <use transform="scale(0.707)" xlink:href="#E1-MJMATHI-70" x="0" y="0"></use>
 <use transform="scale(0.574)" xlink:href="#E1-MJMATHI-6E" x="620" y="-291"></use>
</g>
</g>
</g>
</g>
</svg>